# xmcd
# 
# Track frame offsets:
#     150
#     13459
#     31114
#     48517
#     69657
#     84251
#     100842
#     114429
#     132190
#     149752
#     166006
#     196897
# 
# Disc length: 2680
# 
# Revision: 5
# Processed by: cddbd v1.5.2PL0 Copyright (c) Steve Scherf et al.
# Submitted via: fre:ac v1.0.31
# 
DISCID=9f0a760c
DTITLE=We Are Scientists - Brain Thrust Mastery
DYEAR=2008
DGENRE=Post Punk Revival
TTITLE0=Ghouls
TTITLE1=Let's See It
TTITLE2=After Hours
TTITLE3=Lethal Enforcer
TTITLE4=Impatience
TTITLE5=Tonight
TTITLE6=Spoken for
TTITLE7=Altered Beast
TTITLE8=Chick Lit
TTITLE9=Dinosaurs
TTITLE10=That's What Counts
TTITLE11=Data
EXTD=YEAR: 2008
EXTT0=
EXTT1=
EXTT2=
EXTT3=
EXTT4=
EXTT5=
EXTT6=
EXTT7=
EXTT8=
EXTT9=
EXTT10=
EXTT11=
PLAYORDER=
